<svg viewBox="0 0 1248 832" fill="white" xmlns="http://www.w3.org/2000/svg">
        <!--
            הערות לתיקון:
            1. ה-viewBox הורחב עוד יותר כדי להקטין ויזואלית את הלוגו.
            2. הפרופורציות של התבנית המקורית נשמרו.
            3. הקוד נקי והצבע אחיד.
        -->
        <g>
            <path d="M317.018982,342.363678
            C323.304016,336.562744 329.508942,331.098755 336.248047,325.275635
            C343.905334,321.919891 350.942078,318.693054 358.171356,315.979309
            C369.781433,311.621033 381.990295,313.227386 393.997192,312.922943
            C397.729584,313.608582 401.461945,314.294250 405.928131,315.139099
            C412.476898,317.704865 418.525024,319.676147 424.044922,322.633423
            C430.264984,325.965851 436.009338,330.186279 442.120636,334.306335
            C443.494568,335.761780 444.708466,336.931427 445.924866,338.466553
            C444.688690,340.802094 443.714630,343.022125 442.147156,344.681610
            C439.980347,346.975525 437.366516,348.847229 434.664490,351.063660
            C432.908020,352.781494 431.431244,354.335449 429.680115,356.055389
            C428.247955,357.448212 427.090210,358.675049 425.659332,360.039337
            C424.624115,360.429688 423.862061,360.682648 422.917053,360.656189
            C417.254547,356.196411 412.122620,351.423035 406.220886,347.962677
            C394.953796,341.356445 382.085358,341.041687 370.028564,343.552338
            C355.325684,346.613983 344.352692,356.155884 337.114288,369.640259
            C331.392578,380.299164 330.970734,391.765961 330.870300,403.496918
            C330.622070,432.486694 353.016052,460.604889 386.914703,457.965027
            C395.218750,457.318329 403.202698,455.279388 410.390717,450.052917
            C413.850830,447.690765 416.947357,445.351685 420.296753,442.881592
            C421.039124,442.181366 421.528656,441.612152 422.307129,440.902100
            C423.398499,440.481964 424.200928,440.202667 425.296387,440.092072
            C429.163300,443.449249 432.653320,446.739044 436.341125,449.789795
            C438.715363,451.753876 441.380157,453.366760 444.093170,455.424255
            C445.151459,457.454834 446.031311,459.198303 446.911133,460.941742
            C439.933563,466.198792 433.477234,472.413605 425.886780,476.544434
            C395.674377,492.986450 365.507233,492.160248 335.869904,474.566833
            C334.873535,473.975342 333.792358,473.526733 332.405457,472.922974
            C322.895020,465.050964 314.740997,456.449341 308.828064,445.815063
            C302.998535,435.330750 299.648499,424.023071 298.197052,412.309418
            C296.216400,396.324707 297.732605,380.399902 303.972168,365.476196
            C307.317139,357.475769 312.555145,350.266785 317.018982,342.363678z"/>
            <path d="M791.051941,379.017700
            C794.530823,370.719208 797.015625,361.793488 801.751343,354.287994
            C807.143738,345.741821 814.052490,337.976227 821.194824,330.754181
            C830.558716,321.285828 843.503784,318.370575 855.695801,314.415833
            C859.091003,313.314545 862.881897,313.323639 866.508484,313.063599
            C885.474609,311.703766 903.878845,313.474304 920.709412,323.341492
            C924.680725,325.669769 928.495605,328.264740 932.929626,331.146973
            C934.699524,332.018707 936.314453,332.134735 937.078491,333.001099
            C940.817871,337.241241 944.330505,341.681335 947.923279,346.050781
            C948.119934,346.593872 948.316589,347.136932 948.895142,348.167267
            C952.163574,353.776276 955.050171,358.898041 957.936768,364.019836
            C958.920227,366.774902 959.903748,369.529968 960.961426,373.038086
            C965.881226,390.443146 966.566956,407.180756 962.069153,424.025024
            C956.652649,444.558807 945.586670,461.269836 928.047119,473.371918
            C916.925232,481.045868 904.452698,485.780151 891.004578,486.822510
            C881.032715,487.595428 870.767090,488.142975 860.974915,486.606842
            C852.207642,485.231445 843.737610,481.272064 835.442078,477.735870
            C822.191833,472.087555 813.059387,461.513702 804.242188,449.803192
            C797.821045,440.041473 793.895081,429.894775 791.963074,419.086914
            C790.611755,411.527496 789.610413,403.835388 789.357788,396.172729
            C789.170105,390.479187 790.434387,384.737793 791.051941,379.017700
            M928.546814,378.065857
            C924.802063,371.635071 921.922302,364.457733 917.142761,358.920135
            C905.103638,344.971832 888.716919,340.850037 871.070923,342.241852
            C857.552673,343.308136 845.675537,349.080170 836.732361,359.526550
            C824.312317,374.034302 821.531006,391.198181 824.111145,409.603699
            C826.874207,429.313141 835.921143,444.701752 854.342407,453.681732
            C878.615295,465.514221 908.581543,455.834076 921.122925,437.472565
            C933.599060,419.206635 934.888855,399.495483 928.546814,378.065857z"/>
            <path d="M499.050964,451.969116
            C499.041382,451.531372 499.031830,451.093658 498.985352,450.008728
            C498.627655,448.575012 498.306885,447.788483 497.986115,447.001984
            C488.420807,422.810699 478.878296,398.610382 469.279999,374.432190
            C464.940857,363.501862 460.490845,352.615570 455.996521,340.987976
            C455.221375,338.180206 454.540863,336.093719 453.838470,333.665009
            C452.902985,331.543976 451.989349,329.765167 451.055298,327.593689
            C450.029480,323.469666 449.024078,319.738312 448.018677,316.006897
            C449.453644,315.808289 450.888580,315.609711 453.065002,315.261292
            C455.174713,315.124878 456.542908,315.138275 458.248108,315.373260
            C461.385132,315.677765 464.185242,315.760681 467.385773,315.873108
            C469.862366,315.629517 471.938477,315.356384 474.014618,315.083221
            C481.849457,314.496552 484.018097,319.770599 486.229950,325.946655
            C495.580933,352.056946 505.293304,378.037933 514.902161,404.055664
            C519.730774,417.130005 524.620728,430.181732 530.016113,444.675995
            C531.835815,440.239899 533.311218,436.935333 534.561035,433.547546
            C541.348328,415.149414 548.188354,396.769562 554.797180,378.307129
            C560.331482,362.846527 565.573242,347.281189 570.975708,331.010742
            C571.724304,328.205139 572.441650,326.151093 573.159058,324.097046
            C574.574463,321.497589 575.989807,318.898132 578.171875,316.140320
            C585.623352,315.939117 592.308167,315.896240 598.993042,315.853394
            C603.103577,315.853394 607.214050,315.853394 612.034424,315.853394
            C610.066223,321.168182 608.184631,326.248993 606.180969,331.663147
            C603.025146,340.053619 599.991394,348.110748 596.681274,356.790497
            C595.901123,358.927521 595.397278,360.441925 594.893555,361.956360
            C594.253723,363.717438 593.613831,365.478516 592.694946,367.837036
            C590.187683,374.125977 587.877502,379.786926 585.747742,385.515015
            C580.745667,398.969055 575.829773,412.455109 570.879028,425.928223
            C568.902527,430.993073 566.926025,436.057953 564.686646,441.755341
            C563.899841,444.196289 563.375977,446.004669 562.585510,448.033722
            C561.524109,450.160583 560.729370,452.066742 559.697876,454.199066
            C559.270691,455.268219 559.080261,456.111267 558.889771,456.954285
            C558.346313,457.781799 557.802856,458.609283 557.081421,460.086609
            C554.897583,466.468536 552.891724,472.200714 550.885864,477.932892
            C550.007446,479.732697 549.129089,481.532501 547.645142,483.658386
            C537.694885,484.030365 528.350281,484.076233 519.005615,484.122101
            C514.708252,484.715607 511.896729,483.222778 510.764984,478.755432
            C510.386169,477.259979 509.144012,475.983246 508.102234,473.934387
            C504.955627,466.164490 502.003296,459.066803 499.050964,451.969116z"/>
            <path d="M470.947937,485.828156
            C486.625916,496.650635 502.969269,506.418060 521.378723,511.627594
            C534.431458,515.321228 547.852356,518.088074 561.292664,519.920654
            C572.235474,521.412781 583.448730,521.118469 594.546021,521.237305
            C614.070557,521.446350 632.166687,515.440552 649.746582,507.685547
            C675.747314,496.215851 696.989929,478.422394 714.525635,456.430328
            C723.918823,444.649963 731.653931,431.540253 740.000061,418.939514
            C741.328003,416.934570 741.930969,414.449371 743.327271,411.081024
            C738.920532,411.081024 735.351562,411.081573 731.782593,411.080933
            C724.282959,411.079559 716.782349,411.144531 709.284363,411.032349
            C707.208374,411.001312 704.342041,412.088379 704.072754,408.239014
            C703.828247,404.743439 704.216675,402.080963 708.510559,401.339264
            C714.897156,400.236023 721.220825,398.758270 727.556885,397.374176
            C742.506470,394.108307 757.446533,390.798889 772.395874,387.531677
            C773.004761,387.398621 773.668152,387.514709 775.263672,387.514709
            C775.263672,396.519562 775.263672,405.294983 775.245239,414.991150
            C775.309326,423.610931 775.391907,431.309937 775.474487,439.008972
            C775.409668,442.702637 775.344788,446.396332 775.377869,450.543579
            C775.401550,454.039612 775.327332,457.082062 775.234131,460.936890
            C775.280151,462.492157 775.345093,463.234985 775.410034,463.977844
            C775.169983,464.352631 774.929932,464.727417 774.060730,465.158142
            C772.315613,465.053406 771.199585,464.892700 769.853027,464.485352
            C766.754089,463.067078 763.885742,461.895508 760.721802,460.593872
            C759.012268,459.950897 757.598328,459.437927 755.985352,458.563416
            C755.365906,454.381927 754.945557,450.561981 754.393616,445.546478
            C746.306458,452.317444 741.961731,460.827667 735.855225,468.273438
            C722.363647,485.134491 706.855164,499.360046 689.615662,511.751923
            C686.958313,513.661987 684.473877,515.812683 681.564026,517.912964
            C678.487549,519.664246 675.756531,521.354553 672.720825,523.162842
            C670.944153,524.199341 669.472046,525.117859 667.667114,526.139526
            C663.556946,528.163879 659.779663,530.085022 655.656189,532.108337
            C651.171570,534.085449 647.033264,535.960388 642.534790,537.873657
            C641.449768,537.941833 640.724915,537.971802 640.000000,538.001709
            C631.352539,540.022217 622.795837,542.678955 614.038330,543.927673
            C597.066467,546.347961 580.032349,546.853821 563.159302,542.550964
            C558.542114,541.373596 553.777710,540.773621 548.516113,539.699219
            C547.635742,539.330261 547.320068,539.170837 547.004395,539.011353
            C545.922485,538.660522 544.840515,538.309753 543.164124,537.648315
            C538.081177,535.826843 533.592651,534.315979 528.907654,532.590515
            C528.162964,532.188904 527.614807,532.001892 526.859009,531.575745
            C525.482910,530.871887 524.314514,530.407227 522.970459,529.668091
            C521.873108,528.899170 520.951294,528.404602 519.819214,527.639954
            C512.760986,523.522278 505.913055,519.674622 499.065155,515.827026
            C498.692596,515.503113 498.320068,515.179199 497.460327,514.556885
            C494.667084,512.457520 492.360992,510.656586 490.054932,508.855652
            C489.961365,508.560822 489.788666,508.323578 489.176758,507.774536
            C487.895782,506.555267 486.974823,505.705414 486.053894,504.855530
            C479.795044,498.514862 473.512482,492.197113 467.317749,485.794373
            C466.760406,485.218292 466.770447,484.093201 466.759552,482.993835
            C467.792267,483.422821 468.582428,484.081055 469.761383,485.080383
            C470.347198,485.692322 470.613098,485.827881 470.947937,485.828156z"/>
            <path d="M720.000854,313.953735
            C733.775024,317.354279 745.867432,324.011932 756.782837,332.948120
            C757.676086,333.679413 758.612061,334.368469 759.435913,335.171722
            C760.252808,335.968140 760.953064,336.884125 762.574524,338.747498
            C756.200500,344.619965 750.050964,350.546783 743.520447,356.018890
            C742.548279,356.833557 739.377930,356.092560 737.914246,355.077057
            C729.485291,349.229248 720.572449,344.606659 710.410400,342.648010
            C665.052124,333.905487 635.227844,370.292847 640.498901,408.318481
            C643.729004,431.620728 656.927307,446.550964 678.089539,455.248444
            C683.091309,457.304138 688.231262,459.023865 694.163269,461.214050
            C691.335449,464.048431 688.641602,466.850067 685.836670,469.535553
            C681.871887,473.331451 678.043884,477.327271 673.706665,480.649231
            C671.941895,482.000977 668.700195,482.792450 666.629639,482.172333
            C634.994019,472.697601 610.575684,444.949615 607.742004,411.399261
            C606.583923,397.687347 606.407898,384.126923 610.935547,371.034637
            C622.681274,337.070221 646.969666,317.853638 682.104492,312.321320
            C689.592224,311.142334 697.402283,312.010712 705.951416,311.943176
            C708.524902,312.050720 710.210815,312.150909 711.896729,312.251099
            C713.009094,312.547455 714.121460,312.843811 715.855469,313.405396
            C717.651672,313.764954 718.826233,313.859344 720.000854,313.953735z"/>
        </g>
    </svg>