<svg viewBox="303 261 659 336" fill="#fff" xmlns="http://www.w3.org/2000/svg"><path d="M376.785 358.315c5.091-4.7 10.117-9.125 15.576-13.842 6.202-2.718 11.902-5.332 17.758-7.53 9.404-3.53 19.293-2.229 29.019-2.475 3.023.555 6.046 1.11 9.664 1.795 5.304 2.078 10.203 3.675 14.674 6.07 5.039 2.7 9.692 6.118 14.642 9.455 1.113 1.179 2.096 2.126 3.081 3.37-1.001 1.892-1.79 3.69-3.06 5.034-1.755 1.858-3.872 3.374-6.06 5.17-1.424 1.391-2.62 2.65-4.038 4.043-1.16 1.128-2.098 2.122-3.257 3.227-.838.316-1.456.52-2.221.5-4.587-3.613-8.744-7.48-13.524-10.282-9.126-5.351-19.55-5.606-29.316-3.573-11.91 2.48-20.797 10.21-26.66 21.132-4.635 8.633-4.977 17.921-5.058 27.424-.201 23.481 17.938 46.257 45.396 44.119 6.726-.524 13.193-2.176 19.015-6.41 2.803-1.912 5.311-3.807 8.024-5.808.602-.567.998-1.028 1.629-1.603.884-.34 1.534-.567 2.421-.656 3.132 2.719 5.96 5.384 8.946 7.855 1.923 1.59 4.082 2.897 6.28 4.564.857 1.644 1.57 3.057 2.282 4.469-5.652 4.258-10.881 9.292-17.03 12.638-24.472 13.318-48.907 12.649-72.913-1.602-.807-.479-1.683-.842-2.807-1.331-7.703-6.377-14.308-13.344-19.097-21.958-4.722-8.492-7.436-17.651-8.611-27.14-1.605-12.947-.377-25.846 4.677-37.934 2.71-6.48 6.953-12.32 10.568-18.721zM760.752 388.004c2.818-6.721 4.83-13.951 8.667-20.03 4.367-6.923 9.964-13.213 15.749-19.063 7.585-7.67 18.07-10.03 27.946-13.234 2.75-.892 5.82-.885 8.758-1.095 15.362-1.102 30.27.332 43.903 8.325 3.216 1.886 6.306 3.987 9.898 6.322 1.434.706 2.742.8 3.36 1.502 3.03 3.434 5.875 7.03 8.785 10.57.16.44.318.88.787 1.714 2.647 4.544 4.986 8.692 7.324 12.841.796 2.232 1.593 4.463 2.45 7.305 3.985 14.098 4.54 27.655.897 41.3-4.387 16.632-13.35 30.168-27.558 39.97-9.009 6.216-19.111 10.05-30.004 10.895-8.078.626-16.393 1.07-24.324-.174-7.102-1.115-13.963-4.322-20.682-7.186-10.733-4.575-18.13-13.14-25.272-22.625-5.201-7.907-8.381-16.126-9.946-24.88-1.094-6.124-1.906-12.354-2.11-18.561-.152-4.612.872-9.262 1.372-13.896m111.37-.77c-3.032-5.21-5.365-11.023-9.236-15.509-9.752-11.298-23.025-14.636-37.319-13.51-10.95.865-20.57 5.54-27.814 14.002-10.06 11.75-12.313 25.654-10.223 40.562 2.238 15.965 9.566 28.43 24.487 35.703 19.661 9.585 43.934 1.744 54.093-13.13 10.105-14.795 11.15-30.76 6.013-48.119zM524.231 447.095c-.007-.355-.015-.71-.053-1.588a15.707 15.707 0 0 0-.81-2.435c-7.747-19.595-15.477-39.198-23.251-58.782-3.515-8.853-7.12-17.671-10.76-27.09-.628-2.274-1.179-3.964-1.748-5.931-.758-1.718-1.498-3.16-2.254-4.918-.831-3.34-1.645-6.363-2.46-9.385 1.162-.161 2.325-.322 4.088-.604 1.709-.11 2.817-.1 4.198.09 2.541.247 4.809.314 7.401.405 2.007-.197 3.688-.418 5.37-.64 6.346-.475 8.103 3.797 9.894 8.8 7.575 21.15 15.442 42.194 23.225 63.268 3.91 10.59 7.872 21.162 12.242 32.903 1.474-3.594 2.67-6.27 3.681-9.014 5.498-14.903 11.039-29.79 16.392-44.745 4.483-12.523 8.728-25.131 13.104-38.31.607-2.273 1.188-3.937 1.769-5.6 1.146-2.106 2.293-4.212 4.06-6.445 6.036-.163 11.45-.198 16.865-.233h10.564l-4.741 12.806A4635.457 4635.457 0 0 1 603.312 370a138.819 138.819 0 0 0-1.448 4.185 202.78 202.78 0 0 1-1.781 4.763c-2.031 5.094-3.902 9.68-5.627 14.32-4.052 10.897-8.034 21.82-12.044 32.734-1.601 4.102-3.202 8.205-5.016 12.82-.637 1.977-1.061 3.442-1.702 5.085-.86 1.723-1.503 3.267-2.339 4.994-.346.866-.5 1.55-.654 2.232-.44.67-.88 1.34-1.465 2.537a2141.72 2141.72 0 0 1-5.018 14.456c-.712 1.457-1.423 2.915-2.625 4.637-8.06.302-15.63.339-23.198.376-3.481.48-5.759-.729-6.675-4.347-.307-1.211-1.313-2.246-2.157-3.905-2.549-6.294-4.94-12.043-7.332-17.792z"/><path d="M501.468 474.52c12.699 8.767 25.937 16.679 40.849 20.898 10.572 2.992 21.443 5.233 32.33 6.718 8.864 1.208 17.946.97 26.935 1.066 15.815.17 30.473-4.695 44.713-10.977 21.06-9.29 38.267-23.703 52.47-41.516 7.61-9.543 13.875-20.161 20.635-30.368 1.076-1.624 1.564-3.637 2.695-6.365h-9.351c-6.075-.002-12.15.051-18.224-.04-1.681-.025-4.003.856-4.221-2.262-.198-2.832.117-4.988 3.595-5.59 5.173-.893 10.295-2.09 15.427-3.21 12.11-2.646 24.21-5.327 36.32-7.973.493-.108 1.03-.014 2.323-.014 0 7.294 0 14.402-.015 22.256.052 6.982.118 13.218.185 19.454-.052 2.992-.105 5.984-.078 9.343.02 2.832-.04 5.296-.116 8.419.037 1.26.09 1.861.142 2.463-.194.304-.389.607-1.093.956-1.413-.085-2.317-.215-3.408-.545-2.51-1.149-4.834-2.098-7.396-3.152-1.385-.52-2.53-.936-3.837-1.645-.502-3.387-.842-6.48-1.29-10.543-6.55 5.484-10.069 12.377-15.015 18.408-10.928 13.658-23.49 25.18-37.454 35.218-2.153 1.547-4.165 3.29-6.522 4.99-2.492 1.419-4.704 2.788-7.163 4.253-1.44.84-2.632 1.583-4.094 2.411-3.329 1.64-6.388 3.196-9.728 4.835-3.633 1.601-6.985 3.12-10.629 4.67a85.75 85.75 0 0 1-2.053.103c-7.004 1.637-13.935 3.789-21.029 4.8-13.747 1.96-27.545 2.37-41.212-1.115-3.74-.953-7.6-1.44-11.86-2.31a15.974 15.974 0 0 1-1.225-.557c-.877-.284-1.753-.568-3.111-1.104-4.117-1.475-7.753-2.7-11.548-4.097-.603-.325-1.047-.476-1.66-.822-1.114-.57-2.06-.946-3.149-1.545-.889-.623-1.635-1.023-2.552-1.643-5.718-3.335-11.264-6.452-16.811-9.568-.302-.262-.604-.525-1.3-1.029-2.263-1.7-4.13-3.16-5.999-4.618-.075-.239-.215-.43-.71-.876-1.038-.987-1.784-1.676-2.53-2.364-5.07-5.136-10.159-10.253-15.177-15.44-.451-.466-.443-1.378-.452-2.268.837.347 1.477.88 2.432 1.69.474.496.69.606.96.606z"/><path d="M703.2 335.303c11.158 2.754 20.953 8.147 29.794 15.385.724.592 1.482 1.15 2.15 1.801.66.645 1.228 1.387 2.541 2.896-5.163 4.757-10.144 9.558-15.433 13.99-.788.66-3.356.06-4.541-.763-6.828-4.736-14.047-8.48-22.279-10.067-36.74-7.082-60.897 22.392-56.628 53.193 2.616 18.875 13.307 30.968 30.449 38.013 4.051 1.665 8.214 3.058 13.02 4.832-2.291 2.296-4.473 4.566-6.745 6.74-3.212 3.075-6.312 6.312-9.826 9.003-1.43 1.095-4.055 1.736-5.732 1.234-25.625-7.675-45.404-30.15-47.699-57.327-.938-11.106-1.08-22.09 2.587-32.695 9.514-27.511 29.187-43.077 57.647-47.558 6.065-.955 12.39-.251 19.316-.306 2.084.087 3.45.168 4.815.25.901.24 1.802.48 3.207.934 1.455.292 2.406.368 3.358.445z"/></svg>